<?xml version="1.0" encoding="UTF-8" standalone="no"?>
<!DOCTYPE svg PUBLIC "-//W3C//DTD SVG 1.1//EN"
 "http://www.w3.org/Graphics/SVG/1.1/DTD/svg11.dtd">
<!-- Generated by graphviz version 2.40.1 (20161225.0304)
 -->
<!-- Title: TopicTree Pages: 1 -->
<svg width="2579pt" height="1484pt"
 viewBox="0.00 0.00 2579.00 1484.00" xmlns="http://www.w3.org/2000/svg" xmlns:xlink="http://www.w3.org/1999/xlink">
<g id="graph0" class="graph" transform="scale(1 1) rotate(0) translate(4 1480)">
<title>TopicTree</title>
<polygon fill="#ffffff" stroke="transparent" points="-4,4 -4,-1480 2575,-1480 2575,4 -4,4"/>
<!-- Rust -->
<g id="node1" class="node">
<title>Rust</title>
<ellipse fill="none" stroke="#000000" cx="2436" cy="-306" rx="30.5947" ry="18"/>
<text text-anchor="middle" x="2436" y="-302.3" font-family="Sans-Serif" font-size="14.00" fill="#000000">Rust</text>
</g>
<!-- tracking protection -->
<g id="node2" class="node">
<title>tracking protection</title>
<ellipse fill="none" stroke="#000000" cx="1946" cy="-522" rx="98.5829" ry="18"/>
<text text-anchor="middle" x="1946" y="-518.3" font-family="Sans-Serif" font-size="14.00" fill="#000000">tracking protection</text>
</g>
<!-- browser extensions -->
<g id="node26" class="node">
<title>browser extensions</title>
<polygon fill="none" stroke="#000000" points="2002.5,-468 1845.5,-468 1845.5,-432 2002.5,-432 2002.5,-468"/>
<text text-anchor="middle" x="1924" y="-446.3" font-family="Sans-Serif" font-size="14.00" fill="#000000">browser extensions</text>
</g>
<!-- tracking protection&#45;&gt;browser extensions -->
<g id="edge17" class="edge">
<title>tracking protection&#45;&gt;browser extensions</title>
<path fill="none" stroke="#000000" d="M1940.4485,-503.8314C1938.0697,-496.0463 1935.2362,-486.7729 1932.5967,-478.1347"/>
<polygon fill="#000000" stroke="#000000" points="1935.8958,-476.954 1929.6263,-468.4133 1929.2013,-478.9996 1935.8958,-476.954"/>
</g>
<!-- Fingerprinting -->
<g id="node38" class="node">
<title>Fingerprinting</title>
<polygon fill="none" stroke="#000000" points="2387.7104,-298.5442 2387.7104,-313.4558 2339.8456,-324 2272.1544,-324 2224.2896,-313.4558 2224.2896,-298.5442 2272.1544,-288 2339.8456,-288 2387.7104,-298.5442"/>
<text text-anchor="middle" x="2306" y="-302.3" font-family="Sans-Serif" font-size="14.00" fill="#000000">Fingerprinting</text>
</g>
<!-- tracking protection&#45;&gt;Fingerprinting -->
<g id="edge70" class="edge">
<title>tracking protection&#45;&gt;Fingerprinting</title>
<path fill="none" stroke="#000000" d="M2017.67,-509.5514C2029.7805,-507.5924 2042.2371,-505.6667 2054,-504 2122.2289,-494.3327 2316.1887,-519.4778 2362,-468 2380.1239,-447.6343 2343.6168,-373.4331 2321.3967,-332.8929"/>
<polygon fill="#000000" stroke="#000000" points="2324.4129,-331.1151 2316.4968,-324.0734 2318.2938,-334.5147 2324.4129,-331.1151"/>
</g>
<!-- Surveillance -->
<g id="node39" class="node">
<title>Surveillance</title>
<polygon fill="none" stroke="#000000" points="2167.3268,-442.5442 2167.3268,-457.4558 2124.373,-468 2063.627,-468 2020.6732,-457.4558 2020.6732,-442.5442 2063.627,-432 2124.373,-432 2167.3268,-442.5442"/>
<text text-anchor="middle" x="2094" y="-446.3" font-family="Sans-Serif" font-size="14.00" fill="#000000">Surveillance</text>
</g>
<!-- tracking protection&#45;&gt;Surveillance -->
<g id="edge69" class="edge">
<title>tracking protection&#45;&gt;Surveillance</title>
<path fill="none" stroke="#000000" d="M1980.6994,-505.1192C2001.3327,-495.0814 2027.7087,-482.2498 2049.8195,-471.4932"/>
<polygon fill="#000000" stroke="#000000" points="2051.544,-474.5466 2059.0052,-467.0245 2048.4817,-468.2519 2051.544,-474.5466"/>
</g>
<!-- WebCompat -->
<g id="node3" class="node">
<title>WebCompat</title>
<ellipse fill="none" stroke="#000000" cx="695" cy="-738" rx="67.6881" ry="18"/>
<text text-anchor="middle" x="695" y="-734.3" font-family="Sans-Serif" font-size="14.00" fill="#000000">WebCompat</text>
</g>
<!-- Participation -->
<g id="node27" class="node">
<title>Participation</title>
<polygon fill="none" stroke="#000000" points="1273,-684 1169,-684 1169,-648 1273,-648 1273,-684"/>
<text text-anchor="middle" x="1221" y="-662.3" font-family="Sans-Serif" font-size="14.00" fill="#000000">Participation</text>
</g>
<!-- WebCompat&#45;&gt;Participation -->
<g id="edge36" class="edge">
<title>WebCompat&#45;&gt;Participation</title>
<path fill="none" stroke="#000000" d="M752.8718,-728.657C771.1345,-725.7851 791.3979,-722.6774 810,-720 933.4733,-702.2282 1078.1665,-683.7661 1158.7365,-673.6961"/>
<polygon fill="#000000" stroke="#000000" points="1159.2262,-677.1622 1168.7158,-672.4508 1158.3593,-670.2161 1159.2262,-677.1622"/>
</g>
<!-- DHT -->
<g id="node4" class="node">
<title>DHT</title>
<ellipse fill="none" stroke="#000000" cx="1265" cy="-306" rx="30.5947" ry="18"/>
<text text-anchor="middle" x="1265" y="-302.3" font-family="Sans-Serif" font-size="14.00" fill="#000000">DHT</text>
</g>
<!-- NLP -->
<g id="node5" class="node">
<title>NLP</title>
<ellipse fill="none" stroke="#000000" cx="1306" cy="-162" rx="28.6953" ry="18"/>
<text text-anchor="middle" x="1306" y="-158.3" font-family="Sans-Serif" font-size="14.00" fill="#000000">NLP</text>
</g>
<!-- sentiment analysis -->
<g id="node6" class="node">
<title>sentiment analysis</title>
<ellipse fill="none" stroke="#000000" cx="917" cy="-738" rx="98.2828" ry="18"/>
<text text-anchor="middle" x="917" y="-734.3" font-family="Sans-Serif" font-size="14.00" fill="#000000">sentiment analysis</text>
</g>
<!-- sentiment analysis&#45;&gt;NLP -->
<g id="edge1" class="edge">
<title>sentiment analysis&#45;&gt;NLP</title>
<path fill="none" stroke="#000000" d="M889.9836,-720.633C856.2722,-696.6024 803,-649.8003 803,-594 803,-594 803,-594 803,-450 803,-409.1184 795.8116,-391.3923 822,-360 940.0183,-218.5302 1175.0589,-176.9289 1267.4384,-165.7603"/>
<polygon fill="#000000" stroke="#000000" points="1267.9368,-169.2261 1277.4686,-164.6006 1267.1328,-162.2724 1267.9368,-169.2261"/>
</g>
<!-- cryptocurrency -->
<g id="node7" class="node">
<title>cryptocurrency</title>
<ellipse fill="none" stroke="#000000" cx="574" cy="-162" rx="80.6858" ry="18"/>
<text text-anchor="middle" x="574" y="-158.3" font-family="Sans-Serif" font-size="14.00" fill="#000000">cryptocurrency</text>
</g>
<!-- blockchain -->
<g id="node8" class="node">
<title>blockchain</title>
<ellipse fill="none" stroke="#000000" cx="1027" cy="-90" rx="59.5901" ry="18"/>
<text text-anchor="middle" x="1027" y="-86.3" font-family="Sans-Serif" font-size="14.00" fill="#000000">blockchain</text>
</g>
<!-- cryptocurrency&#45;&gt;blockchain -->
<g id="edge2" class="edge">
<title>cryptocurrency&#45;&gt;blockchain</title>
<path fill="none" stroke="#000000" d="M639.8701,-151.5306C726.6453,-137.7385 878.2265,-113.6461 963.6997,-100.061"/>
<polygon fill="#000000" stroke="#000000" points="964.4601,-103.4841 973.7867,-98.4577 963.3612,-96.5709 964.4601,-103.4841"/>
</g>
<!-- Bug futures markets -->
<g id="node46" class="node">
<title>Bug futures markets</title>
<polygon fill="none" stroke="#000000" points="367.5,-36 204.5,-36 204.5,0 367.5,0 367.5,-36"/>
<text text-anchor="middle" x="286" y="-14.3" font-family="Sans-Serif" font-size="14.00" fill="#000000">Bug futures markets</text>
</g>
<!-- blockchain&#45;&gt;Bug futures markets -->
<g id="edge108" class="edge">
<title>blockchain&#45;&gt;Bug futures markets</title>
<path fill="none" stroke="#000000" d="M970.0854,-84.4698C842.4968,-72.0726 532.6631,-41.9673 377.5879,-26.8992"/>
<polygon fill="#000000" stroke="#000000" points="377.8924,-23.4124 367.6008,-25.9288 377.2154,-30.3796 377.8924,-23.4124"/>
</g>
<!-- decentralization -->
<g id="node9" class="node">
<title>decentralization</title>
<ellipse fill="none" stroke="#000000" cx="370" cy="-1026" rx="85.2851" ry="18"/>
<text text-anchor="middle" x="370" y="-1022.3" font-family="Sans-Serif" font-size="14.00" fill="#000000">decentralization</text>
</g>
<!-- Equity crowdfunding -->
<g id="node36" class="node">
<title>Equity crowdfunding</title>
<polygon fill="none" stroke="#000000" points="642.5,-972 479.5,-972 479.5,-936 642.5,-936 642.5,-972"/>
<text text-anchor="middle" x="561" y="-950.3" font-family="Sans-Serif" font-size="14.00" fill="#000000">Equity crowdfunding</text>
</g>
<!-- decentralization&#45;&gt;Equity crowdfunding -->
<g id="edge57" class="edge">
<title>decentralization&#45;&gt;Equity crowdfunding</title>
<path fill="none" stroke="#000000" d="M411.9158,-1010.1993C438.8679,-1000.0393 474.2388,-986.7058 503.7637,-975.576"/>
<polygon fill="#000000" stroke="#000000" points="505.0035,-978.8491 513.1261,-972.0467 502.5343,-972.2991 505.0035,-978.8491"/>
</g>
<!-- content&#45;addressable storage -->
<g id="node10" class="node">
<title>content&#45;addressable storage</title>
<ellipse fill="none" stroke="#000000" cx="976" cy="-378" rx="144.8743" ry="18"/>
<text text-anchor="middle" x="976" y="-374.3" font-family="Sans-Serif" font-size="14.00" fill="#000000">content&#45;addressable storage</text>
</g>
<!-- content&#45;addressable storage&#45;&gt;DHT -->
<g id="edge96" class="edge">
<title>content&#45;addressable storage&#45;&gt;DHT</title>
<path fill="none" stroke="#000000" d="M1040.8572,-361.8418C1098.0682,-347.5885 1179.5017,-327.3006 1226.8377,-315.5076"/>
<polygon fill="#000000" stroke="#000000" points="1227.8265,-318.8683 1236.6838,-313.0546 1226.1342,-312.0759 1227.8265,-318.8683"/>
</g>
<!-- Merkle trees -->
<g id="node44" class="node">
<title>Merkle trees</title>
<polygon fill="none" stroke="#000000" points="610,-324 504,-324 504,-288 610,-288 610,-324"/>
<text text-anchor="middle" x="557" y="-302.3" font-family="Sans-Serif" font-size="14.00" fill="#000000">Merkle trees</text>
</g>
<!-- content&#45;addressable storage&#45;&gt;Merkle trees -->
<g id="edge94" class="edge">
<title>content&#45;addressable storage&#45;&gt;Merkle trees</title>
<path fill="none" stroke="#000000" d="M869.8833,-365.6918C801.0956,-356.8317 709.471,-343.3816 620.3319,-324.1528"/>
<polygon fill="#000000" stroke="#000000" points="620.8355,-320.6804 610.319,-321.9659 619.3418,-327.5192 620.8355,-320.6804"/>
</g>
<!-- bots -->
<g id="node11" class="node">
<title>bots</title>
<ellipse fill="none" stroke="#000000" cx="714" cy="-810" rx="30.5947" ry="18"/>
<text text-anchor="middle" x="714" y="-806.3" font-family="Sans-Serif" font-size="14.00" fill="#000000">bots</text>
</g>
<!-- bots&#45;&gt;WebCompat -->
<g id="edge34" class="edge">
<title>bots&#45;&gt;WebCompat</title>
<path fill="none" stroke="#000000" d="M709.3034,-792.2022C707.2182,-784.3005 704.714,-774.811 702.3878,-765.9959"/>
<polygon fill="#000000" stroke="#000000" points="705.7103,-764.8691 699.7746,-756.0931 698.942,-766.6552 705.7103,-764.8691"/>
</g>
<!-- bots&#45;&gt;NLP -->
<g id="edge3" class="edge">
<title>bots&#45;&gt;NLP</title>
<path fill="none" stroke="#000000" d="M685.7013,-802.6275C662.9509,-795.0438 632.4808,-780.76 618,-756 609.9225,-742.1886 611.3143,-734.5362 618,-720 653.9562,-641.8233 765,-680.0491 765,-594 765,-594 765,-594 765,-450 765,-407.2408 778.084,-397.2943 799,-360 845.7978,-276.5569 870.1531,-251.4828 959,-216 1014.5634,-193.8096 1188.8916,-173.9042 1267.2172,-165.8234"/>
<polygon fill="#000000" stroke="#000000" points="1268.0169,-169.26 1277.6098,-164.7626 1267.3061,-162.2962 1268.0169,-169.26"/>
</g>
<!-- version control -->
<g id="node13" class="node">
<title>version control</title>
<ellipse fill="none" stroke="#000000" cx="1312" cy="-1386" rx="79.8859" ry="18"/>
<text text-anchor="middle" x="1312" y="-1382.3" font-family="Sans-Serif" font-size="14.00" fill="#000000">version control</text>
</g>
<!-- bots&#45;&gt;version control -->
<g id="edge90" class="edge">
<title>bots&#45;&gt;version control</title>
<path fill="none" stroke="#000000" d="M737.625,-821.9024C801,-855.6948 970,-958.8527 970,-1098 970,-1242 970,-1242 970,-1242 970,-1300.6253 1142.8569,-1348.6748 1242.7904,-1371.555"/>
<polygon fill="#000000" stroke="#000000" points="1242.2929,-1375.0308 1252.8186,-1373.8227 1243.8369,-1368.2032 1242.2929,-1375.0308"/>
</g>
<!-- data visualization -->
<g id="node12" class="node">
<title>data visualization</title>
<ellipse fill="none" stroke="#000000" cx="798" cy="-162" rx="92.0841" ry="18"/>
<text text-anchor="middle" x="798" y="-158.3" font-family="Sans-Serif" font-size="14.00" fill="#000000">data visualization</text>
</g>
<!-- version control&#45;&gt;DHT -->
<g id="edge91" class="edge">
<title>version control&#45;&gt;DHT</title>
<path fill="none" stroke="#000000" d="M1384.6327,-1378.4565C1447.0478,-1370.469 1530.5835,-1355.687 1554,-1332 1582.7412,-1302.9268 1573,-1282.8816 1573,-1242 1573,-1242 1573,-1242 1573,-1098 1573,-1023.8859 1577.8086,-493.1959 1536,-432 1514.2338,-400.1406 1492.0724,-412.0847 1457,-396 1387.5896,-364.1674 1369.8251,-357.079 1301,-324 1299.8309,-323.4381 1298.6421,-322.8631 1297.4426,-322.2797"/>
<polygon fill="#000000" stroke="#000000" points="1298.7043,-318.9999 1288.1863,-317.7262 1295.6143,-325.281 1298.7043,-318.9999"/>
</g>
<!-- HTML merge -->
<g id="node43" class="node">
<title>HTML merge</title>
<polygon fill="none" stroke="#000000" points="1545,-1332 1437,-1332 1437,-1296 1545,-1296 1545,-1332"/>
<text text-anchor="middle" x="1491" y="-1310.3" font-family="Sans-Serif" font-size="14.00" fill="#000000">HTML merge</text>
</g>
<!-- version control&#45;&gt;HTML merge -->
<g id="edge92" class="edge">
<title>version control&#45;&gt;HTML merge</title>
<path fill="none" stroke="#000000" d="M1351.2823,-1370.1993C1376.3224,-1360.1273 1409.1164,-1346.9364 1436.6397,-1335.8656"/>
<polygon fill="#000000" stroke="#000000" points="1438.1625,-1339.0257 1446.1339,-1332.0467 1435.5502,-1332.5314 1438.1625,-1339.0257"/>
</g>
<!-- version control&#45;&gt;Merkle trees -->
<g id="edge95" class="edge">
<title>version control&#45;&gt;Merkle trees</title>
<path fill="none" stroke="#000000" d="M1232.0197,-1384.2307C974.1055,-1377.4767 181,-1348.0831 181,-1242 181,-1242 181,-1242 181,-738 181,-625.756 206.1826,-591.8877 276,-504 340.7914,-422.4391 447.8557,-360.0544 509.4317,-328.6107"/>
<polygon fill="#000000" stroke="#000000" points="511.1912,-331.6433 518.5432,-324.0145 508.0385,-325.3935 511.1912,-331.6433"/>
</g>
<!-- maintenance programming -->
<g id="node14" class="node">
<title>maintenance programming</title>
<ellipse fill="none" stroke="#000000" cx="1649" cy="-1458" rx="138.3755" ry="18"/>
<text text-anchor="middle" x="1649" y="-1454.3" font-family="Sans-Serif" font-size="14.00" fill="#000000">maintenance programming</text>
</g>
<!-- maintenance programming&#45;&gt;Rust -->
<g id="edge11" class="edge">
<title>maintenance programming&#45;&gt;Rust</title>
<path fill="none" stroke="#000000" d="M1784.1812,-1454.0785C1897.4674,-1448.6005 2062.8573,-1435.4706 2204,-1404 2320.4867,-1378.0269 2457,-1433.3472 2457,-1314 2457,-1314 2457,-1314 2457,-450 2457,-409.2729 2448.673,-362.7384 2442.5061,-333.8595"/>
<polygon fill="#000000" stroke="#000000" points="2445.9177,-333.0768 2440.3512,-324.0621 2439.0811,-334.5806 2445.9177,-333.0768"/>
</g>
<!-- maintenance programming&#45;&gt;version control -->
<g id="edge89" class="edge">
<title>maintenance programming&#45;&gt;version control</title>
<path fill="none" stroke="#000000" d="M1576.705,-1442.5542C1518.5043,-1430.1196 1437.2748,-1412.7649 1380.1931,-1400.5694"/>
<polygon fill="#000000" stroke="#000000" points="1380.6932,-1397.0974 1370.1826,-1398.4307 1379.2306,-1403.9429 1380.6932,-1397.0974"/>
</g>
<!-- Literate Programming -->
<g id="node21" class="node">
<title>Literate Programming</title>
<ellipse fill="none" stroke="#000000" cx="1356" cy="-1242" rx="113.18" ry="18"/>
<text text-anchor="middle" x="1356" y="-1238.3" font-family="Sans-Serif" font-size="14.00" fill="#000000">Literate Programming</text>
</g>
<!-- maintenance programming&#45;&gt;Literate Programming -->
<g id="edge12" class="edge">
<title>maintenance programming&#45;&gt;Literate Programming</title>
<path fill="none" stroke="#000000" d="M1643.4765,-1439.822C1632.2916,-1406.1504 1603.7083,-1334.0508 1554,-1296 1535.516,-1281.8508 1484.3197,-1268.0776 1438.6192,-1257.9827"/>
<polygon fill="#000000" stroke="#000000" points="1439.1781,-1254.5225 1428.6631,-1255.8212 1437.6929,-1261.3632 1439.1781,-1254.5225"/>
</g>
<!-- maintenance programming&#45;&gt;Participation -->
<g id="edge33" class="edge">
<title>maintenance programming&#45;&gt;Participation</title>
<path fill="none" stroke="#000000" d="M1647.8054,-1439.9654C1646.1654,-1421.4697 1642.3975,-1392.0811 1634,-1368 1525.5886,-1057.1159 1473.1145,-982.9689 1275,-720 1267.3338,-709.8242 1257.8143,-699.6792 1248.913,-690.9755"/>
<polygon fill="#000000" stroke="#000000" points="1251.2875,-688.4036 1241.6355,-684.0344 1246.4562,-693.469 1251.2875,-688.4036"/>
</g>
<!-- quantified self -->
<g id="node15" class="node">
<title>quantified self</title>
<ellipse fill="none" stroke="#000000" cx="143" cy="-378" rx="77.1866" ry="18"/>
<text text-anchor="middle" x="143" y="-374.3" font-family="Sans-Serif" font-size="14.00" fill="#000000">quantified self</text>
</g>
<!-- quantified self&#45;&gt;version control -->
<g id="edge93" class="edge">
<title>quantified self&#45;&gt;version control</title>
<path fill="none" stroke="#000000" d="M130.0575,-396.1005C94.8567,-447.1662 0,-597.7832 0,-738 0,-1242 0,-1242 0,-1242 0,-1326.3145 85.7562,-1309.4528 167,-1332 267.3605,-1359.8526 969.2872,-1378.2634 1221.7839,-1384.0486"/>
<polygon fill="#000000" stroke="#000000" points="1221.9447,-1387.5531 1232.0219,-1384.2819 1222.1042,-1380.5549 1221.9447,-1387.5531"/>
</g>
<!-- Remote collaboration -->
<g id="node16" class="node">
<title>Remote collaboration</title>
<ellipse fill="none" stroke="#000000" cx="1417" cy="-522" rx="110.4804" ry="18"/>
<text text-anchor="middle" x="1417" y="-518.3" font-family="Sans-Serif" font-size="14.00" fill="#000000">Remote collaboration</text>
</g>
<!-- Remote collaboration&#45;&gt;version control -->
<g id="edge117" class="edge">
<title>Remote collaboration&#45;&gt;version control</title>
<path fill="none" stroke="#000000" d="M1429.4785,-540.1602C1435.7925,-550.2655 1442.9574,-563.3308 1447,-576 1456.7875,-606.6732 1452.5784,-615.8943 1455,-648 1475.4722,-919.421 1602.0932,-1017.7411 1478,-1260 1465.516,-1284.3717 1449.9321,-1279.6045 1428,-1296 1398.5442,-1318.0199 1365.4443,-1343.8069 1342.1643,-1362.1203"/>
<polygon fill="#000000" stroke="#000000" points="1339.7454,-1359.5703 1334.0567,-1368.5084 1344.0776,-1365.0687 1339.7454,-1359.5703"/>
</g>
<!-- incentives -->
<g id="node23" class="node">
<title>incentives</title>
<polygon fill="none" stroke="#000000" points="605.5,-1116 516.5,-1116 516.5,-1080 605.5,-1080 605.5,-1116"/>
<text text-anchor="middle" x="561" y="-1094.3" font-family="Sans-Serif" font-size="14.00" fill="#000000">incentives</text>
</g>
<!-- Remote collaboration&#45;&gt;incentives -->
<g id="edge120" class="edge">
<title>Remote collaboration&#45;&gt;incentives</title>
<path fill="none" stroke="#000000" d="M1421.9728,-540.0247C1429.0026,-567.136 1441,-620.1258 1441,-666 1441,-738 1441,-738 1441,-738 1441,-868.647 1063.8109,-1005.388 939,-1044 827.4051,-1078.5234 690.3433,-1091.1049 615.747,-1095.5939"/>
<polygon fill="#000000" stroke="#000000" points="615.4273,-1092.1064 605.6448,-1096.1751 615.8294,-1099.0949 615.4273,-1092.1064"/>
</g>
<!-- Burnout -->
<g id="node30" class="node">
<title>Burnout</title>
<polygon fill="none" stroke="#000000" points="935.117,-442.5442 935.117,-457.4558 904.5876,-468 861.4124,-468 830.883,-457.4558 830.883,-442.5442 861.4124,-432 904.5876,-432 935.117,-442.5442"/>
<text text-anchor="middle" x="883" y="-446.3" font-family="Sans-Serif" font-size="14.00" fill="#000000">Burnout</text>
</g>
<!-- Remote collaboration&#45;&gt;Burnout -->
<g id="edge123" class="edge">
<title>Remote collaboration&#45;&gt;Burnout</title>
<path fill="none" stroke="#000000" d="M1331.7956,-510.5118C1223.9773,-495.9745 1040.8385,-471.2816 945.2535,-458.3937"/>
<polygon fill="#000000" stroke="#000000" points="945.5396,-454.9007 935.1616,-457.033 944.6042,-461.8379 945.5396,-454.9007"/>
</g>
<!-- conferences -->
<g id="node32" class="node">
<title>conferences</title>
<polygon fill="none" stroke="#000000" points="1455.3268,-442.5442 1455.3268,-457.4558 1412.373,-468 1351.627,-468 1308.6732,-457.4558 1308.6732,-442.5442 1351.627,-432 1412.373,-432 1455.3268,-442.5442"/>
<text text-anchor="middle" x="1382" y="-446.3" font-family="Sans-Serif" font-size="14.00" fill="#000000">conferences</text>
</g>
<!-- Remote collaboration&#45;&gt;conferences -->
<g id="edge118" class="edge">
<title>Remote collaboration&#45;&gt;conferences</title>
<path fill="none" stroke="#000000" d="M1408.168,-503.8314C1404.3014,-495.8771 1399.6794,-486.369 1395.4032,-477.5723"/>
<polygon fill="#000000" stroke="#000000" points="1398.4707,-475.8768 1390.9509,-468.4133 1392.1751,-478.9371 1398.4707,-475.8768"/>
</g>
<!-- Remote collaboration&#45;&gt;Equity crowdfunding -->
<g id="edge54" class="edge">
<title>Remote collaboration&#45;&gt;Equity crowdfunding</title>
<path fill="none" stroke="#000000" d="M1406.503,-540.0187C1375.7895,-602.8529 1282.0202,-813.1663 1128,-900 1087.3748,-922.9037 802.506,-940.9976 652.6206,-949.205"/>
<polygon fill="#000000" stroke="#000000" points="652.3024,-945.717 642.5073,-949.755 652.6826,-952.7067 652.3024,-945.717"/>
</g>
<!-- Remote collaboration&#45;&gt;Equity crowdfunding -->
<g id="edge59" class="edge">
<title>Remote collaboration&#45;&gt;Equity crowdfunding</title>
<path fill="none" stroke="#000000" d="M1413.6156,-540.0187C1393.7895,-602.8529 1300.0202,-813.1663 1146,-900 1104.4394,-923.4311 807.2576,-941.8283 653.1261,-949.7561"/>
<polygon fill="#000000" stroke="#000000" points="652.5419,-946.2813 642.733,-950.2859 652.8983,-953.2722 652.5419,-946.2813"/>
</g>
<!-- AR -->
<g id="node41" class="node">
<title>AR</title>
<polygon fill="none" stroke="#000000" points="1789,-442.5442 1789,-457.4558 1773.1838,-468 1750.8162,-468 1735,-457.4558 1735,-442.5442 1750.8162,-432 1773.1838,-432 1789,-442.5442"/>
<text text-anchor="middle" x="1762" y="-446.3" font-family="Sans-Serif" font-size="14.00" fill="#000000">AR</text>
</g>
<!-- Remote collaboration&#45;&gt;AR -->
<g id="edge121" class="edge">
<title>Remote collaboration&#45;&gt;AR</title>
<path fill="none" stroke="#000000" d="M1485.1609,-507.7751C1557.0745,-492.7671 1667.7413,-469.6714 1724.9354,-457.7352"/>
<polygon fill="#000000" stroke="#000000" points="1725.8971,-461.11 1734.9711,-455.6408 1724.467,-454.2576 1725.8971,-461.11"/>
</g>
<!-- Large Data Set Collaboration -->
<g id="node47" class="node">
<title>Large Data Set Collaboration</title>
<polygon fill="none" stroke="#000000" points="1253,-468 1029,-468 1029,-432 1253,-432 1253,-468"/>
<text text-anchor="middle" x="1141" y="-446.3" font-family="Sans-Serif" font-size="14.00" fill="#000000">Large Data Set Collaboration</text>
</g>
<!-- Remote collaboration&#45;&gt;Large Data Set Collaboration -->
<g id="edge119" class="edge">
<title>Remote collaboration&#45;&gt;Large Data Set Collaboration</title>
<path fill="none" stroke="#000000" d="M1358.4675,-506.7307C1318.1591,-496.2154 1264.1292,-482.1207 1220.0091,-470.6111"/>
<polygon fill="#000000" stroke="#000000" points="1220.7387,-467.1843 1210.179,-468.0467 1218.9717,-473.9576 1220.7387,-467.1843"/>
</g>
<!-- VR -->
<g id="node48" class="node">
<title>VR</title>
<polygon fill="none" stroke="#000000" points="1527,-468 1473,-468 1473,-432 1527,-432 1527,-468"/>
<text text-anchor="middle" x="1500" y="-446.3" font-family="Sans-Serif" font-size="14.00" fill="#000000">VR</text>
</g>
<!-- Remote collaboration&#45;&gt;VR -->
<g id="edge122" class="edge">
<title>Remote collaboration&#45;&gt;VR</title>
<path fill="none" stroke="#000000" d="M1437.5169,-504.2022C1447.715,-495.3557 1460.2072,-484.5191 1471.3341,-474.8668"/>
<polygon fill="#000000" stroke="#000000" points="1473.8822,-477.2898 1479.1427,-468.0931 1469.2953,-472.0021 1473.8822,-477.2898"/>
</g>
<!-- security -->
<g id="node17" class="node">
<title>security</title>
<ellipse fill="none" stroke="#000000" cx="2166" cy="-378" rx="47.3916" ry="18"/>
<text text-anchor="middle" x="2166" y="-374.3" font-family="Sans-Serif" font-size="14.00" fill="#000000">security</text>
</g>
<!-- security&#45;&gt;Rust -->
<g id="edge4" class="edge">
<title>security&#45;&gt;Rust</title>
<path fill="none" stroke="#000000" d="M2209.309,-370.5959C2256.2859,-361.9401 2333.123,-345.9527 2397,-324 2398.9041,-323.3456 2400.8404,-322.629 2402.7809,-321.8706"/>
<polygon fill="#000000" stroke="#000000" points="2404.531,-324.9314 2412.389,-317.8249 2401.8144,-318.48 2404.531,-324.9314"/>
</g>
<!-- security&#45;&gt;tracking protection -->
<g id="edge7" class="edge">
<title>security&#45;&gt;tracking protection</title>
<path fill="none" stroke="#000000" d="M2174.8486,-395.9656C2183.1915,-415.7759 2192.2079,-447.5461 2176,-468 2166.5093,-479.977 2090.1249,-496.3092 2027.9458,-507.8672"/>
<polygon fill="#000000" stroke="#000000" points="2027.3018,-504.4268 2018.1008,-509.6798 2028.5693,-511.3111 2027.3018,-504.4268"/>
</g>
<!-- security&#45;&gt;maintenance programming -->
<g id="edge10" class="edge">
<title>security&#45;&gt;maintenance programming</title>
<path fill="none" stroke="#000000" d="M2188.5251,-394.0133C2219.3776,-418.011 2271,-466.4622 2271,-522 2271,-1314 2271,-1314 2271,-1314 2271,-1411.4796 1977.379,-1442.9859 1793.6109,-1453.1588"/>
<polygon fill="#000000" stroke="#000000" points="1793.3789,-1449.6661 1783.5817,-1453.6989 1793.7555,-1456.656 1793.3789,-1449.6661"/>
</g>
<!-- microkernels -->
<g id="node19" class="node">
<title>microkernels</title>
<ellipse fill="none" stroke="#000000" cx="2136" cy="-306" rx="70.6878" ry="18"/>
<text text-anchor="middle" x="2136" y="-302.3" font-family="Sans-Serif" font-size="14.00" fill="#000000">microkernels</text>
</g>
<!-- security&#45;&gt;microkernels -->
<g id="edge8" class="edge">
<title>security&#45;&gt;microkernels</title>
<path fill="none" stroke="#000000" d="M2158.5843,-360.2022C2155.2203,-352.1287 2151.1657,-342.3976 2147.4258,-333.422"/>
<polygon fill="#000000" stroke="#000000" points="2150.6158,-331.9777 2143.5388,-324.0931 2144.1542,-334.6701 2150.6158,-331.9777"/>
</g>
<!-- bug bounties -->
<g id="node20" class="node">
<title>bug bounties</title>
<ellipse fill="none" stroke="#000000" cx="699" cy="-306" rx="71.4873" ry="18"/>
<text text-anchor="middle" x="699" y="-302.3" font-family="Sans-Serif" font-size="14.00" fill="#000000">bug bounties</text>
</g>
<!-- security&#45;&gt;bug bounties -->
<g id="edge9" class="edge">
<title>security&#45;&gt;bug bounties</title>
<path fill="none" stroke="#000000" d="M2118.8518,-375.686C1907.7397,-365.3246 1047.9721,-323.1275 779.4928,-309.9506"/>
<polygon fill="#000000" stroke="#000000" points="779.5915,-306.4513 769.4319,-309.4568 779.2483,-313.4429 779.5915,-306.4513"/>
</g>
<!-- Harassment -->
<g id="node29" class="node">
<title>Harassment</title>
<polygon fill="none" stroke="#000000" points="1554.3268,-298.5442 1554.3268,-313.4558 1511.373,-324 1450.627,-324 1407.6732,-313.4558 1407.6732,-298.5442 1450.627,-288 1511.373,-288 1554.3268,-298.5442"/>
<text text-anchor="middle" x="1481" y="-302.3" font-family="Sans-Serif" font-size="14.00" fill="#000000">Harassment</text>
</g>
<!-- security&#45;&gt;Harassment -->
<g id="edge73" class="edge">
<title>security&#45;&gt;Harassment</title>
<path fill="none" stroke="#000000" d="M2120.2585,-373.1921C2006.5243,-361.2376 1709.6488,-330.0332 1564.0095,-314.7251"/>
<polygon fill="#000000" stroke="#000000" points="1564.1005,-311.2155 1553.7894,-313.6509 1563.3687,-318.1771 1564.1005,-311.2155"/>
</g>
<!-- Text Anonymization -->
<g id="node37" class="node">
<title>Text Anonymization</title>
<polygon fill="none" stroke="#000000" points="1840.5,-252 1683.5,-252 1683.5,-216 1840.5,-216 1840.5,-252"/>
<text text-anchor="middle" x="1762" y="-230.3" font-family="Sans-Serif" font-size="14.00" fill="#000000">Text Anonymization</text>
</g>
<!-- security&#45;&gt;Text Anonymization -->
<g id="edge74" class="edge">
<title>security&#45;&gt;Text Anonymization</title>
<path fill="none" stroke="#000000" d="M2132.1615,-365.1794C2085.152,-347.4463 1997.3573,-314.6086 1922,-288 1890.7056,-276.95 1855.8015,-265.1134 1826.5994,-255.3466"/>
<polygon fill="#000000" stroke="#000000" points="1827.5218,-251.9648 1816.9281,-252.1179 1825.3051,-258.6045 1827.5218,-251.9648"/>
</g>
<!-- security&#45;&gt;Fingerprinting -->
<g id="edge61" class="edge">
<title>security&#45;&gt;Fingerprinting</title>
<path fill="none" stroke="#000000" d="M2194.3311,-363.4297C2213.8533,-353.3897 2240.174,-339.8533 2262.3585,-328.4442"/>
<polygon fill="#000000" stroke="#000000" points="2263.9718,-331.5503 2271.264,-323.8642 2260.7704,-325.3253 2263.9718,-331.5503"/>
</g>
<!-- IoT -->
<g id="node18" class="node">
<title>IoT</title>
<ellipse fill="none" stroke="#000000" cx="2326" cy="-450" rx="27" ry="18"/>
<text text-anchor="middle" x="2326" y="-446.3" font-family="Sans-Serif" font-size="14.00" fill="#000000">IoT</text>
</g>
<!-- IoT&#45;&gt;Rust -->
<g id="edge6" class="edge">
<title>IoT&#45;&gt;Rust</title>
<path fill="none" stroke="#000000" d="M2338.4046,-433.7613C2357.5306,-408.7236 2394.3636,-360.5059 2416.9049,-330.9972"/>
<polygon fill="#000000" stroke="#000000" points="2419.8426,-332.9172 2423.1317,-322.8458 2414.2799,-328.6678 2419.8426,-332.9172"/>
</g>
<!-- IoT&#45;&gt;security -->
<g id="edge5" class="edge">
<title>IoT&#45;&gt;security</title>
<path fill="none" stroke="#000000" d="M2303.4153,-439.8369C2278.1222,-428.455 2236.6455,-409.7905 2205.866,-395.9397"/>
<polygon fill="#000000" stroke="#000000" points="2207.2424,-392.7211 2196.6869,-391.8091 2204.3698,-399.1045 2207.2424,-392.7211"/>
</g>
<!-- bug bounties&#45;&gt;incentives -->
<g id="edge41" class="edge">
<title>bug bounties&#45;&gt;incentives</title>
<path fill="none" stroke="#000000" d="M680.8015,-323.6963C656.6437,-349.1762 617,-398.7908 617,-450 617,-522 617,-522 617,-522 617,-717.1066 503.9163,-743.6901 471,-936 468.3007,-951.7707 466.1172,-956.7633 471,-972 483.5301,-1011.0998 513.1447,-1048.3944 534.9977,-1072.1202"/>
<polygon fill="#000000" stroke="#000000" points="532.6694,-1074.7528 542.0753,-1079.6291 537.7633,-1069.9515 532.6694,-1074.7528"/>
</g>
<!-- Markets -->
<g id="node25" class="node">
<title>Markets</title>
<polygon fill="none" stroke="#000000" points="577.5,-252 504.5,-252 504.5,-216 577.5,-216 577.5,-252"/>
<text text-anchor="middle" x="541" y="-230.3" font-family="Sans-Serif" font-size="14.00" fill="#000000">Markets</text>
</g>
<!-- bug bounties&#45;&gt;Markets -->
<g id="edge42" class="edge">
<title>bug bounties&#45;&gt;Markets</title>
<path fill="none" stroke="#000000" d="M664.3262,-290.1993C641.5308,-279.8115 611.4552,-266.1062 586.7117,-254.8306"/>
<polygon fill="#000000" stroke="#000000" points="588.0669,-251.602 577.5158,-250.6401 585.1642,-257.9718 588.0669,-251.602"/>
</g>
<!-- SEO -->
<g id="node31" class="node">
<title>SEO</title>
<polygon fill="none" stroke="#000000" points="1388.2219,-1162.5442 1388.2219,-1177.4558 1369.3468,-1188 1342.6532,-1188 1323.7781,-1177.4558 1323.7781,-1162.5442 1342.6532,-1152 1369.3468,-1152 1388.2219,-1162.5442"/>
<text text-anchor="middle" x="1356" y="-1166.3" font-family="Sans-Serif" font-size="14.00" fill="#000000">SEO</text>
</g>
<!-- Literate Programming&#45;&gt;SEO -->
<g id="edge31" class="edge">
<title>Literate Programming&#45;&gt;SEO</title>
<path fill="none" stroke="#000000" d="M1356,-1223.8314C1356,-1216.131 1356,-1206.9743 1356,-1198.4166"/>
<polygon fill="#000000" stroke="#000000" points="1359.5001,-1198.4132 1356,-1188.4133 1352.5001,-1198.4133 1359.5001,-1198.4132"/>
</g>
<!-- Web Publishing -->
<g id="node22" class="node">
<title>Web Publishing</title>
<polygon fill="none" stroke="#000000" points="1708.5,-612 1583.5,-612 1583.5,-576 1708.5,-576 1708.5,-612"/>
<text text-anchor="middle" x="1646" y="-590.3" font-family="Sans-Serif" font-size="14.00" fill="#000000">Web Publishing</text>
</g>
<!-- Web Publishing&#45;&gt;tracking protection -->
<g id="edge16" class="edge">
<title>Web Publishing&#45;&gt;tracking protection</title>
<path fill="none" stroke="#000000" d="M1708.5247,-578.9941C1757.4653,-567.2483 1825.5027,-550.9194 1876.2126,-538.749"/>
<polygon fill="#000000" stroke="#000000" points="1877.2057,-542.1101 1886.1127,-536.3729 1875.572,-535.3034 1877.2057,-542.1101"/>
</g>
<!-- Web Publishing&#45;&gt;DHT -->
<g id="edge83" class="edge">
<title>Web Publishing&#45;&gt;DHT</title>
<path fill="none" stroke="#000000" d="M1635.7236,-575.6823C1630.0161,-565.3104 1622.8988,-552.0409 1617,-540 1593.8912,-492.8291 1606.6093,-468.6695 1569,-432 1493.2461,-358.1391 1368.0074,-325.2034 1304.5211,-312.6343"/>
<polygon fill="#000000" stroke="#000000" points="1304.9909,-309.1608 1294.5116,-310.7209 1303.6766,-316.0363 1304.9909,-309.1608"/>
</g>
<!-- Web Publishing&#45;&gt;version control -->
<g id="edge88" class="edge">
<title>Web Publishing&#45;&gt;version control</title>
<path fill="none" stroke="#000000" d="M1663.9263,-612.2566C1687.2346,-638.0114 1725,-687.5283 1725,-738 1725,-1242 1725,-1242 1725,-1242 1725,-1312.0951 1510.2053,-1355.9815 1390.4222,-1375.0057"/>
<polygon fill="#000000" stroke="#000000" points="1389.5371,-1371.6015 1380.1986,-1376.6058 1390.6195,-1378.5173 1389.5371,-1371.6015"/>
</g>
<!-- Web Publishing&#45;&gt;Remote collaboration -->
<g id="edge116" class="edge">
<title>Web Publishing&#45;&gt;Remote collaboration</title>
<path fill="none" stroke="#000000" d="M1588.5092,-575.9243C1554.7453,-565.3086 1512.1019,-551.901 1477.7834,-541.1109"/>
<polygon fill="#000000" stroke="#000000" points="1478.4697,-537.6578 1467.8803,-537.9973 1476.3701,-544.3356 1478.4697,-537.6578"/>
</g>
<!-- Web Publishing&#45;&gt;incentives -->
<g id="edge14" class="edge">
<title>Web Publishing&#45;&gt;incentives</title>
<path fill="none" stroke="#000000" d="M1630.4054,-612.3567C1584.2619,-673.6437 1443.3659,-872.9132 1275,-972 1197.5314,-1017.5919 1173.4727,-1023.2991 1086,-1044 997.2098,-1065.0127 731.7601,-1085.478 615.9301,-1093.9364"/>
<polygon fill="#000000" stroke="#000000" points="615.5799,-1090.4525 605.8604,-1094.6691 616.088,-1097.434 615.5799,-1090.4525"/>
</g>
<!-- Web Publishing&#45;&gt;incentives -->
<g id="edge87" class="edge">
<title>Web Publishing&#45;&gt;incentives</title>
<path fill="none" stroke="#000000" d="M1637.7427,-612.3567C1602.2619,-673.6437 1461.3659,-872.9132 1293,-972 1215.5314,-1017.5919 1191.4727,-1023.2991 1104,-1044 1012.6975,-1065.6072 734.5969,-1086.6357 615.7026,-1094.6252"/>
<polygon fill="#000000" stroke="#000000" points="615.4663,-1091.1331 605.7212,-1095.2903 615.9317,-1098.1177 615.4663,-1091.1331"/>
</g>
<!-- Adfraud -->
<g id="node24" class="node">
<title>Adfraud</title>
<polygon fill="none" stroke="#000000" points="2167.117,-514.5442 2167.117,-529.4558 2136.5876,-540 2093.4124,-540 2062.883,-529.4558 2062.883,-514.5442 2093.4124,-504 2136.5876,-504 2167.117,-514.5442"/>
<text text-anchor="middle" x="2115" y="-518.3" font-family="Sans-Serif" font-size="14.00" fill="#000000">Adfraud</text>
</g>
<!-- Web Publishing&#45;&gt;Adfraud -->
<g id="edge13" class="edge">
<title>Web Publishing&#45;&gt;Adfraud</title>
<path fill="none" stroke="#000000" d="M1708.7234,-588.7496C1789.2695,-581.3118 1933.0864,-565.6787 2054,-540 2058.1313,-539.1226 2062.3899,-538.1056 2066.6454,-537.0102"/>
<polygon fill="#000000" stroke="#000000" points="2067.7699,-540.3319 2076.5083,-534.341 2065.9412,-533.575 2067.7699,-540.3319"/>
</g>
<!-- Web Publishing&#45;&gt;Markets -->
<g id="edge15" class="edge">
<title>Web Publishing&#45;&gt;Markets</title>
<path fill="none" stroke="#000000" d="M1643.7937,-575.9845C1639.2156,-544.4111 1626.365,-478.0637 1595,-432 1566.3644,-389.9448 1550.5922,-384.4985 1506,-360 1462.0245,-335.8403 1446.2159,-340.9761 1399,-324 1356.9015,-308.8639 1348.6765,-297.6823 1305,-288 1167.1111,-257.4323 731.9771,-240.4115 587.8681,-235.5036"/>
<polygon fill="#000000" stroke="#000000" points="587.7173,-231.9966 577.6051,-235.1579 587.4815,-238.9927 587.7173,-231.9966"/>
</g>
<!-- Web Publishing&#45;&gt;Harassment -->
<g id="edge86" class="edge">
<title>Web Publishing&#45;&gt;Harassment</title>
<path fill="none" stroke="#000000" d="M1652.0607,-575.8769C1665.0805,-533.2514 1690.7005,-425.3237 1641,-360 1629.0128,-344.2446 1585.1428,-330.0839 1546.3662,-320.2202"/>
<polygon fill="#000000" stroke="#000000" points="1547.1886,-316.8182 1536.64,-317.8067 1545.5027,-323.6122 1547.1886,-316.8182"/>
</g>
<!-- Web Publishing&#45;&gt;HTML merge -->
<g id="edge84" class="edge">
<title>Web Publishing&#45;&gt;HTML merge</title>
<path fill="none" stroke="#000000" d="M1646.6216,-612.1828C1647.5003,-639.496 1649,-692.7402 1649,-738 1649,-1170 1649,-1170 1649,-1170 1649,-1227.638 1590.8534,-1268.339 1545.1087,-1291.4406"/>
<polygon fill="#000000" stroke="#000000" points="1543.3009,-1288.4284 1535.8538,-1295.9644 1546.375,-1294.7173 1543.3009,-1288.4284"/>
</g>
<!-- incentives&#45;&gt;decentralization -->
<g id="edge37" class="edge">
<title>incentives&#45;&gt;decentralization</title>
<path fill="none" stroke="#000000" d="M516.219,-1081.1192C487.887,-1070.4391 451.165,-1056.5962 421.6101,-1045.4551"/>
<polygon fill="#000000" stroke="#000000" points="422.4762,-1042.0412 411.8844,-1041.7889 420.007,-1048.5913 422.4762,-1042.0412"/>
</g>
<!-- incentives&#45;&gt;quantified self -->
<g id="edge43" class="edge">
<title>incentives&#45;&gt;quantified self</title>
<path fill="none" stroke="#000000" d="M516.2727,-1095.523C440.774,-1090.4856 292.4104,-1076.6314 253,-1044 220.0651,-1016.7302 219,-996.7592 219,-954 219,-954 219,-954 219,-882 219,-780.231 143,-767.769 143,-666 143,-666 143,-666 143,-522 143,-481.876 143,-435.4631 143,-406.4177"/>
<polygon fill="#000000" stroke="#000000" points="146.5001,-406.1853 143,-396.1854 139.5001,-406.1854 146.5001,-406.1853"/>
</g>
<!-- incentives&#45;&gt;Markets -->
<g id="edge38" class="edge">
<title>incentives&#45;&gt;Markets</title>
<path fill="none" stroke="#000000" d="M516.2417,-1094.3453C396.1758,-1083.3179 76,-1045.3477 76,-954 76,-954 76,-954 76,-522 76,-449.5065 12.6642,-417.3555 57,-360 110.8869,-290.2886 383.5307,-251.9175 494.2083,-239.0086"/>
<polygon fill="#000000" stroke="#000000" points="494.865,-242.4563 504.4006,-237.8386 494.0667,-235.502 494.865,-242.4563"/>
</g>
<!-- gamification -->
<g id="node34" class="node">
<title>gamification</title>
<polygon fill="none" stroke="#000000" points="432.7337,-514.5442 432.7337,-529.4558 389.5415,-540 328.4585,-540 285.2663,-529.4558 285.2663,-514.5442 328.4585,-504 389.5415,-504 432.7337,-514.5442"/>
<text text-anchor="middle" x="359" y="-518.3" font-family="Sans-Serif" font-size="14.00" fill="#000000">gamification</text>
</g>
<!-- incentives&#45;&gt;gamification -->
<g id="edge48" class="edge">
<title>incentives&#45;&gt;gamification</title>
<path fill="none" stroke="#000000" d="M516.2317,-1095.4462C444.7477,-1090.4277 309.4595,-1076.7706 276,-1044 246.7932,-1015.3945 257,-994.8816 257,-954 257,-954 257,-954 257,-810 257,-708.8418 313.606,-598.5719 342.4799,-548.9048"/>
<polygon fill="#000000" stroke="#000000" points="345.6227,-550.4659 347.6945,-540.0756 339.5954,-546.9061 345.6227,-550.4659"/>
</g>
<!-- incentives&#45;&gt;Equity crowdfunding -->
<g id="edge60" class="edge">
<title>incentives&#45;&gt;Equity crowdfunding</title>
<path fill="none" stroke="#000000" d="M561,-1079.7623C561,-1055.201 561,-1011.2474 561,-982.3541"/>
<polygon fill="#000000" stroke="#000000" points="564.5001,-982.0896 561,-972.0896 557.5001,-982.0897 564.5001,-982.0896"/>
</g>
<!-- incentives&#45;&gt;Bug futures markets -->
<g id="edge107" class="edge">
<title>incentives&#45;&gt;Bug futures markets</title>
<path fill="none" stroke="#000000" d="M516.3782,-1096.3111C419.1016,-1092.0218 191.1971,-1078.4974 123,-1044 73.9043,-1019.165 38,-1009.0196 38,-954 38,-954 38,-954 38,-738 38,-640.5257 0,-619.4743 0,-522 0,-522 0,-522 0,-162 0,-73.4567 110.7091,-39.3496 194.3677,-26.2163"/>
<polygon fill="#000000" stroke="#000000" points="195.0522,-29.653 204.4266,-24.7164 194.0198,-22.7296 195.0522,-29.653"/>
</g>
<!-- Adfraud&#45;&gt;Fingerprinting -->
<g id="edge68" class="edge">
<title>Adfraud&#45;&gt;Fingerprinting</title>
<path fill="none" stroke="#000000" d="M2163.9377,-513.3748C2243.2154,-499.2905 2391.3114,-472.468 2395,-468 2430.9529,-424.4508 2375.4175,-364.2207 2337.1877,-330.8234"/>
<polygon fill="#000000" stroke="#000000" points="2339.2105,-327.9485 2329.3317,-324.1197 2334.6667,-333.2733 2339.2105,-327.9485"/>
</g>
<!-- Adfraud&#45;&gt;Surveillance -->
<g id="edge65" class="edge">
<title>Adfraud&#45;&gt;Surveillance</title>
<path fill="none" stroke="#000000" d="M2109.7008,-503.8314C2107.4302,-496.0463 2104.7254,-486.7729 2102.206,-478.1347"/>
<polygon fill="#000000" stroke="#000000" points="2105.5306,-477.0332 2099.3705,-468.4133 2098.8106,-478.9933 2105.5306,-477.0332"/>
</g>
<!-- Markets&#45;&gt;cryptocurrency -->
<g id="edge40" class="edge">
<title>Markets&#45;&gt;cryptocurrency</title>
<path fill="none" stroke="#000000" d="M549.3273,-215.8314C553.0291,-207.7547 557.4651,-198.0761 561.5485,-189.1668"/>
<polygon fill="#000000" stroke="#000000" points="564.8048,-190.4624 565.7897,-179.9134 558.4414,-187.5458 564.8048,-190.4624"/>
</g>
<!-- Markets&#45;&gt;decentralization -->
<g id="edge50" class="edge">
<title>Markets&#45;&gt;decentralization</title>
<path fill="none" stroke="#000000" d="M504.2255,-240.565C472.9981,-247.7212 428.5193,-261.8283 398,-288 314.3053,-359.7721 304.0323,-397.3687 276,-504 227.055,-690.1806 320.7383,-920.3961 356.7405,-998.563"/>
<polygon fill="#000000" stroke="#000000" points="353.6249,-1000.1633 361.0277,-1007.7429 359.9673,-997.2012 353.6249,-1000.1633"/>
</g>
<!-- Markets&#45;&gt;data visualization -->
<g id="edge44" class="edge">
<title>Markets&#45;&gt;data visualization</title>
<path fill="none" stroke="#000000" d="M577.5489,-223.7606C618.6033,-212.259 685.954,-193.3903 735.4255,-179.5306"/>
<polygon fill="#000000" stroke="#000000" points="736.3833,-182.8971 745.0683,-176.8291 734.4949,-176.1566 736.3833,-182.8971"/>
</g>
<!-- Tor -->
<g id="node35" class="node">
<title>Tor</title>
<polygon fill="none" stroke="#000000" points="1021,-154.5442 1021,-169.4558 1005.1838,-180 982.8162,-180 967,-169.4558 967,-154.5442 982.8162,-144 1005.1838,-144 1021,-154.5442"/>
<text text-anchor="middle" x="994" y="-158.3" font-family="Sans-Serif" font-size="14.00" fill="#000000">Tor</text>
</g>
<!-- Markets&#45;&gt;Tor -->
<g id="edge39" class="edge">
<title>Markets&#45;&gt;Tor</title>
<path fill="none" stroke="#000000" d="M577.6638,-228.9331C642.5662,-219.8604 781.8845,-199.9207 899,-180 918.0906,-176.7528 939.2667,-172.777 956.7721,-169.3887"/>
<polygon fill="#000000" stroke="#000000" points="957.4654,-172.8195 966.6114,-167.4715 956.1266,-165.9487 957.4654,-172.8195"/>
</g>
<!-- Markets&#45;&gt;Equity crowdfunding -->
<g id="edge53" class="edge">
<title>Markets&#45;&gt;Equity crowdfunding</title>
<path fill="none" stroke="#000000" d="M519.6873,-252.2692C510.1866,-261.8244 500.021,-274.3628 495,-288 489.4718,-303.0146 492.9859,-308.1273 495,-324 509.5603,-438.7457 545.288,-461.2737 560,-576 564.3937,-610.2624 562.2366,-843.8541 561.3321,-925.7231"/>
<polygon fill="#000000" stroke="#000000" points="557.8316,-925.7622 561.2186,-935.801 564.8311,-925.8411 557.8316,-925.7622"/>
</g>
<!-- Participation&#45;&gt;bots -->
<g id="edge26" class="edge">
<title>Participation&#45;&gt;bots</title>
<path fill="none" stroke="#000000" d="M1181.8169,-684.2117C1126.7155,-709.7766 1032.1037,-753.4888 1024,-756 929.9779,-785.136 814.7391,-800.0088 754.7266,-806.2628"/>
<polygon fill="#000000" stroke="#000000" points="754.1263,-802.8057 744.5307,-807.2974 754.833,-809.7699 754.1263,-802.8057"/>
</g>
<!-- Participation&#45;&gt;Literate Programming -->
<g id="edge27" class="edge">
<title>Participation&#45;&gt;Literate Programming</title>
<path fill="none" stroke="#000000" d="M1233.7027,-684.4066C1240.3483,-694.5841 1248.2698,-707.6398 1254,-720 1339.0647,-903.4865 1364.8119,-952.3322 1397,-1152 1399.5465,-1167.7961 1402.1044,-1172.8361 1397,-1188 1393.6203,-1198.0404 1387.5495,-1207.6953 1381.0975,-1215.9948"/>
<polygon fill="#000000" stroke="#000000" points="1378.3048,-1213.8792 1374.604,-1223.8067 1383.6879,-1218.3539 1378.3048,-1213.8792"/>
</g>
<!-- Participation&#45;&gt;Web Publishing -->
<g id="edge29" class="edge">
<title>Participation&#45;&gt;Web Publishing</title>
<path fill="none" stroke="#000000" d="M1273.1133,-657.1714C1348.4841,-644.4027 1488.2129,-620.731 1573.5709,-606.2703"/>
<polygon fill="#000000" stroke="#000000" points="1574.1719,-609.7185 1583.4468,-604.5972 1573.0027,-602.8168 1574.1719,-609.7185"/>
</g>
<!-- Participation&#45;&gt;incentives -->
<g id="edge20" class="edge">
<title>Participation&#45;&gt;incentives</title>
<path fill="none" stroke="#000000" d="M1219.6249,-684.2895C1215.3904,-727.7508 1198.8015,-838.1915 1137,-900 989.998,-1047.0187 729.0431,-1085.002 615.8794,-1094.713"/>
<polygon fill="#000000" stroke="#000000" points="615.4031,-1091.2401 605.7211,-1095.5423 615.9727,-1098.2169 615.4031,-1091.2401"/>
</g>
<!-- Idea platform -->
<g id="node28" class="node">
<title>Idea platform</title>
<polygon fill="none" stroke="#000000" points="551,-612 437,-612 437,-576 551,-576 551,-612"/>
<text text-anchor="middle" x="494" y="-590.3" font-family="Sans-Serif" font-size="14.00" fill="#000000">Idea platform</text>
</g>
<!-- Participation&#45;&gt;Idea platform -->
<g id="edge23" class="edge">
<title>Participation&#45;&gt;Idea platform</title>
<path fill="none" stroke="#000000" d="M1168.716,-660.8219C1039.392,-648.0141 704.6277,-614.86 561.0285,-600.6383"/>
<polygon fill="#000000" stroke="#000000" points="561.3214,-597.1503 551.0252,-599.6476 560.6315,-604.1162 561.3214,-597.1503"/>
</g>
<!-- Participation&#45;&gt;Harassment -->
<g id="edge18" class="edge">
<title>Participation&#45;&gt;Harassment</title>
<path fill="none" stroke="#000000" d="M1210.421,-647.8965C1201.1148,-629.5973 1190.1739,-600.588 1198,-576 1221.7871,-501.2652 1244.3162,-487.2306 1300,-432 1342.6571,-389.6901 1401.0265,-351.9074 1439.8183,-328.999"/>
<polygon fill="#000000" stroke="#000000" points="1441.8821,-331.8469 1448.7523,-323.7815 1438.352,-325.8022 1441.8821,-331.8469"/>
</g>
<!-- Participation&#45;&gt;Burnout -->
<g id="edge19" class="edge">
<title>Participation&#45;&gt;Burnout</title>
<path fill="none" stroke="#000000" d="M1192.7637,-647.9555C1131.1149,-608.5586 984.6361,-514.9509 917.5866,-472.1026"/>
<polygon fill="#000000" stroke="#000000" points="919.3617,-469.0834 909.0506,-466.6477 915.5922,-474.9819 919.3617,-469.0834"/>
</g>
<!-- Participation&#45;&gt;SEO -->
<g id="edge21" class="edge">
<title>Participation&#45;&gt;SEO</title>
<path fill="none" stroke="#000000" d="M1225.8779,-684.2109C1246.166,-759.953 1323.9516,-1050.3527 1348.5186,-1142.0694"/>
<polygon fill="#000000" stroke="#000000" points="1345.1473,-1143.0107 1351.1155,-1151.7646 1351.9089,-1141.1995 1345.1473,-1143.0107"/>
</g>
<!-- Participation&#45;&gt;conferences -->
<g id="edge22" class="edge">
<title>Participation&#45;&gt;conferences</title>
<path fill="none" stroke="#000000" d="M1273.1641,-652.6939C1293.9738,-644.5495 1315.8394,-631.7586 1328,-612 1336.3863,-598.3739 1333.4468,-591.0443 1328,-576 1320.9098,-556.4167 1305.0902,-559.5833 1298,-540 1292.5532,-524.9557 1290.333,-518.0434 1298,-504 1305.7007,-489.8948 1318.838,-478.9244 1332.4651,-470.668"/>
<polygon fill="#000000" stroke="#000000" points="1334.4332,-473.5769 1341.4385,-465.6286 1331.0055,-467.4735 1334.4332,-473.5769"/>
</g>
<!-- Test Pilot -->
<g id="node33" class="node">
<title>Test Pilot</title>
<polygon fill="none" stroke="#000000" points="1319.0597,-586.5442 1319.0597,-601.4558 1286.2207,-612 1239.7793,-612 1206.9403,-601.4558 1206.9403,-586.5442 1239.7793,-576 1286.2207,-576 1319.0597,-586.5442"/>
<text text-anchor="middle" x="1263" y="-590.3" font-family="Sans-Serif" font-size="14.00" fill="#000000">Test Pilot</text>
</g>
<!-- Participation&#45;&gt;Test Pilot -->
<g id="edge24" class="edge">
<title>Participation&#45;&gt;Test Pilot</title>
<path fill="none" stroke="#000000" d="M1231.5984,-647.8314C1236.2877,-639.7925 1241.9028,-630.1666 1247.0798,-621.2918"/>
<polygon fill="#000000" stroke="#000000" points="1250.2434,-622.8146 1252.2589,-612.4133 1244.1969,-619.2875 1250.2434,-622.8146"/>
</g>
<!-- Participation&#45;&gt;gamification -->
<g id="edge30" class="edge">
<title>Participation&#45;&gt;gamification</title>
<path fill="none" stroke="#000000" d="M1168.8884,-657.4439C1104.3515,-646.8364 991.0539,-628.177 894,-612 728.1137,-584.35 533.3673,-551.4878 430.7189,-534.1352"/>
<polygon fill="#000000" stroke="#000000" points="431.2188,-530.6701 420.7752,-532.454 430.0518,-537.5721 431.2188,-530.6701"/>
</g>
<!-- Participation&#45;&gt;Equity crowdfunding -->
<g id="edge56" class="edge">
<title>Participation&#45;&gt;Equity crowdfunding</title>
<path fill="none" stroke="#000000" d="M1195.339,-684.1579C1167.1977,-703.5586 1120.2697,-734.4274 1077,-756 921.8029,-833.3754 728.5582,-900.185 628.3399,-932.7825"/>
<polygon fill="#000000" stroke="#000000" points="627.0769,-929.5125 618.6425,-935.9242 629.2345,-936.1717 627.0769,-929.5125"/>
</g>
<!-- Open Source metrics -->
<g id="node45" class="node">
<title>Open Source metrics</title>
<polygon fill="none" stroke="#000000" points="1127.5,-900 960.5,-900 960.5,-864 1127.5,-864 1127.5,-900"/>
<text text-anchor="middle" x="1044" y="-878.3" font-family="Sans-Serif" font-size="14.00" fill="#000000">Open Source metrics</text>
</g>
<!-- Participation&#45;&gt;Open Source metrics -->
<g id="edge103" class="edge">
<title>Participation&#45;&gt;Open Source metrics</title>
<path fill="none" stroke="#000000" d="M1206.1311,-684.1451C1174.7577,-722.4313 1101.6949,-811.5927 1065.3377,-855.9608"/>
<polygon fill="#000000" stroke="#000000" points="1062.4176,-854.0023 1058.7865,-863.9555 1067.8319,-858.4391 1062.4176,-854.0023"/>
</g>
<!-- Idea platform&#45;&gt;Markets -->
<g id="edge46" class="edge">
<title>Idea platform&#45;&gt;Markets</title>
<path fill="none" stroke="#000000" d="M485.4192,-575.7671C463.4223,-526.1791 410.2687,-386.0224 462,-288 469.4421,-273.8985 482.4079,-262.7805 495.7096,-254.391"/>
<polygon fill="#000000" stroke="#000000" points="497.5894,-257.3461 504.4446,-249.2679 494.048,-251.308 497.5894,-257.3461"/>
</g>
<!-- Idea platform&#45;&gt;gamification -->
<g id="edge47" class="edge">
<title>Idea platform&#45;&gt;gamification</title>
<path fill="none" stroke="#000000" d="M459.9338,-575.8314C442.0782,-566.3084 420.0468,-554.5583 401.1276,-544.4681"/>
<polygon fill="#000000" stroke="#000000" points="402.5926,-541.2827 392.1219,-539.665 399.2984,-547.4592 402.5926,-541.2827"/>
</g>
<!-- Idea platform&#45;&gt;Equity crowdfunding -->
<g id="edge52" class="edge">
<title>Idea platform&#45;&gt;Equity crowdfunding</title>
<path fill="none" stroke="#000000" d="M483.9765,-612.3906C479.0019,-622.5634 473.5267,-635.6197 471,-648 461.4014,-695.0305 464.825,-708.3989 471,-756 479.5152,-821.6409 476.5561,-842.3058 509,-900 514.9209,-910.529 523.3835,-920.5213 531.7666,-928.9821"/>
<polygon fill="#000000" stroke="#000000" points="529.4179,-931.5793 539.0473,-935.9981 534.2752,-926.5388 529.4179,-931.5793"/>
</g>
<!-- Harassment&#45;&gt;NLP -->
<g id="edge28" class="edge">
<title>Harassment&#45;&gt;NLP</title>
<path fill="none" stroke="#000000" d="M1458.8361,-287.7623C1426.3626,-261.0412 1365.9948,-211.3671 1331.6478,-183.1045"/>
<polygon fill="#000000" stroke="#000000" points="1333.4547,-180.0587 1323.5089,-176.4074 1329.0069,-185.464 1333.4547,-180.0587"/>
</g>
<!-- Harassment&#45;&gt;Text Anonymization -->
<g id="edge75" class="edge">
<title>Harassment&#45;&gt;Text Anonymization</title>
<path fill="none" stroke="#000000" d="M1531.887,-292.9613C1573.6867,-282.2511 1633.6481,-266.8873 1681.8834,-254.5281"/>
<polygon fill="#000000" stroke="#000000" points="1682.8577,-257.8916 1691.676,-252.019 1681.1202,-251.1107 1682.8577,-257.8916"/>
</g>
<!-- Burnout&#45;&gt;quantified self -->
<g id="edge32" class="edge">
<title>Burnout&#45;&gt;quantified self</title>
<path fill="none" stroke="#000000" d="M830.6698,-444.9084C703.5669,-432.5416 377.8085,-400.8462 224.7569,-385.9547"/>
<polygon fill="#000000" stroke="#000000" points="224.7769,-382.4402 214.485,-384.9553 224.099,-389.4073 224.7769,-382.4402"/>
</g>
<!-- Burnout&#45;&gt;Equity crowdfunding -->
<g id="edge58" class="edge">
<title>Burnout&#45;&gt;Equity crowdfunding</title>
<path fill="none" stroke="#000000" d="M858.8848,-467.2065C806.4163,-505.9806 681.5206,-605.7694 618,-720 580.3751,-787.6617 567.3583,-879.8573 563.0354,-925.7029"/>
<polygon fill="#000000" stroke="#000000" points="559.537,-925.5326 562.1551,-935.7988 566.5106,-926.1407 559.537,-925.5326"/>
</g>
<!-- SEO&#45;&gt;incentives -->
<g id="edge49" class="edge">
<title>SEO&#45;&gt;incentives</title>
<path fill="none" stroke="#000000" d="M1323.6021,-1167.0659C1201.6384,-1156.0201 769.2943,-1116.8644 615.6648,-1102.9508"/>
<polygon fill="#000000" stroke="#000000" points="615.7985,-1099.4486 605.5235,-1102.0323 615.167,-1106.4201 615.7985,-1099.4486"/>
</g>
<!-- SEO&#45;&gt;Text Anonymization -->
<g id="edge62" class="edge">
<title>SEO&#45;&gt;Text Anonymization</title>
<path fill="none" stroke="#000000" d="M1385.0839,-1160.641C1465.854,-1132.6321 1687,-1041.3911 1687,-882 1687,-882 1687,-882 1687,-810 1687,-684.3825 1873.8745,-790.8043 1940,-684 1981.0701,-617.6646 1860.4886,-581.1517 1838,-540 1811.456,-491.4273 1779.4196,-328.6231 1767.1352,-262.3888"/>
<polygon fill="#000000" stroke="#000000" points="1770.5236,-261.4626 1765.2715,-252.2612 1763.6392,-262.7295 1770.5236,-261.4626"/>
</g>
<!-- SEO&#45;&gt;Open Source metrics -->
<g id="edge105" class="edge">
<title>SEO&#45;&gt;Open Source metrics</title>
<path fill="none" stroke="#000000" d="M1341.8582,-1152.3733C1308.3309,-1111.2668 1220.1995,-1007.1497 1132,-936 1118.1359,-924.8159 1101.775,-914.1777 1086.9449,-905.3469"/>
<polygon fill="#000000" stroke="#000000" points="1088.3456,-902.1119 1077.9449,-900.0933 1084.8167,-908.1573 1088.3456,-902.1119"/>
</g>
<!-- conferences&#45;&gt;Harassment -->
<g id="edge25" class="edge">
<title>conferences&#45;&gt;Harassment</title>
<path fill="none" stroke="#000000" d="M1406.0198,-431.922C1417.693,-422.2338 1431.2653,-409.5234 1441,-396 1454.7386,-376.9145 1465.2603,-352.3601 1472.0563,-333.7213"/>
<polygon fill="#000000" stroke="#000000" points="1475.4422,-334.6422 1475.4454,-324.0473 1468.8359,-332.3277 1475.4422,-334.6422"/>
</g>
<!-- gamification&#45;&gt;WebCompat -->
<g id="edge35" class="edge">
<title>gamification&#45;&gt;WebCompat</title>
<path fill="none" stroke="#000000" d="M369.373,-540.2997C381.3603,-560.111 402.7155,-591.6028 428,-612 493.0532,-664.479 583.5643,-701.2254 640.7064,-720.989"/>
<polygon fill="#000000" stroke="#000000" points="639.6827,-724.3377 650.2772,-724.2483 641.9393,-717.7114 639.6827,-724.3377"/>
</g>
<!-- gamification&#45;&gt;decentralization -->
<g id="edge51" class="edge">
<title>gamification&#45;&gt;decentralization</title>
<path fill="none" stroke="#000000" d="M356.6202,-540.1141C349.1785,-597.7882 326.4044,-782.3717 319,-936 318.2297,-951.9814 313.0888,-957.132 319,-972 323.4217,-983.1216 331.3408,-993.2768 339.6401,-1001.7045"/>
<polygon fill="#000000" stroke="#000000" points="337.2908,-1004.3002 346.9529,-1008.6469 342.1102,-999.2235 337.2908,-1004.3002"/>
</g>
<!-- gamification&#45;&gt;Markets -->
<g id="edge45" class="edge">
<title>gamification&#45;&gt;Markets</title>
<path fill="none" stroke="#000000" d="M359.0919,-503.8183C360.2543,-461.0662 368.8287,-352.8845 424,-288 442.0866,-266.7292 470.3459,-253.3638 494.5605,-245.2513"/>
<polygon fill="#000000" stroke="#000000" points="495.8109,-248.5272 504.3017,-242.1903 493.7124,-241.8491 495.8109,-248.5272"/>
</g>
<!-- gamification&#45;&gt;Equity crowdfunding -->
<g id="edge55" class="edge">
<title>gamification&#45;&gt;Equity crowdfunding</title>
<path fill="none" stroke="#000000" d="M361.4864,-540.145C365.0013,-567.4098 371,-620.5932 371,-666 371,-810 371,-810 371,-810 371,-872.0817 436.2262,-910.8489 490.2447,-932.3097"/>
<polygon fill="#000000" stroke="#000000" points="489.2468,-935.6756 499.837,-935.9895 491.754,-929.14 489.2468,-935.6756"/>
</g>
<!-- gamification&#45;&gt;Bug futures markets -->
<g id="edge109" class="edge">
<title>gamification&#45;&gt;Bug futures markets</title>
<path fill="none" stroke="#000000" d="M351.0488,-503.8746C332.1288,-459.0406 286,-338.9677 286,-234 286,-234 286,-234 286,-162 286,-121.876 286,-75.4631 286,-46.4177"/>
<polygon fill="#000000" stroke="#000000" points="289.5001,-46.1853 286,-36.1854 282.5001,-46.1854 289.5001,-46.1853"/>
</g>
<!-- Equity crowdfunding&#45;&gt;Open Source metrics -->
<g id="edge104" class="edge">
<title>Equity crowdfunding&#45;&gt;Open Source metrics</title>
<path fill="none" stroke="#000000" d="M642.6611,-941.8269C727.7477,-929.1432 860.8805,-909.2973 950.2196,-895.9797"/>
<polygon fill="#000000" stroke="#000000" points="950.9738,-899.406 960.3485,-894.4698 949.9417,-892.4825 950.9738,-899.406"/>
</g>
<!-- Text Anonymization&#45;&gt;NLP -->
<g id="edge63" class="edge">
<title>Text Anonymization&#45;&gt;NLP</title>
<path fill="none" stroke="#000000" d="M1683.3513,-221.5818C1584.3966,-205.9574 1418.4236,-179.7511 1344.0557,-168.0088"/>
<polygon fill="#000000" stroke="#000000" points="1344.1905,-164.4868 1333.7669,-166.3843 1343.0987,-171.4011 1344.1905,-164.4868"/>
</g>
<!-- biometrics -->
<g id="node40" class="node">
<title>biometrics</title>
<polygon fill="none" stroke="#000000" points="2216.9434,-226.5442 2216.9434,-241.4558 2178.9004,-252 2125.0996,-252 2087.0566,-241.4558 2087.0566,-226.5442 2125.0996,-216 2178.9004,-216 2216.9434,-226.5442"/>
<text text-anchor="middle" x="2152" y="-230.3" font-family="Sans-Serif" font-size="14.00" fill="#000000">biometrics</text>
</g>
<!-- Fingerprinting&#45;&gt;biometrics -->
<g id="edge71" class="edge">
<title>Fingerprinting&#45;&gt;biometrics</title>
<path fill="none" stroke="#000000" d="M2268.7209,-288.5708C2246.6579,-278.2556 2218.6034,-265.1393 2195.5285,-254.351"/>
<polygon fill="#000000" stroke="#000000" points="2196.8443,-251.1026 2186.3031,-250.0378 2193.8796,-257.4438 2196.8443,-251.1026"/>
</g>
<!-- Surveillance&#45;&gt;security -->
<g id="edge67" class="edge">
<title>Surveillance&#45;&gt;security</title>
<path fill="none" stroke="#000000" d="M2112.1686,-431.8314C2121.1982,-422.8018 2132.2301,-411.7699 2141.9508,-402.0492"/>
<polygon fill="#000000" stroke="#000000" points="2144.4775,-404.4723 2149.0737,-394.9263 2139.5277,-399.5225 2144.4775,-404.4723"/>
</g>
<!-- Surveillance&#45;&gt;Text Anonymization -->
<g id="edge64" class="edge">
<title>Surveillance&#45;&gt;Text Anonymization</title>
<path fill="none" stroke="#000000" d="M2066.2649,-431.9555C2006.4562,-393.0438 1865.3631,-301.2483 1798.441,-257.7086"/>
<polygon fill="#000000" stroke="#000000" points="1800.1805,-254.6648 1789.8896,-252.1451 1796.3631,-260.5323 1800.1805,-254.6648"/>
</g>
<!-- Surveillance&#45;&gt;biometrics -->
<g id="edge66" class="edge">
<title>Surveillance&#45;&gt;biometrics</title>
<path fill="none" stroke="#000000" d="M2081.5773,-431.7051C2061.9277,-400.2732 2028.5817,-334.8811 2056,-288 2065.5302,-271.7048 2081.9858,-259.9472 2098.6085,-251.6507"/>
<polygon fill="#000000" stroke="#000000" points="2100.211,-254.7658 2107.8176,-247.3908 2097.2721,-248.4126 2100.211,-254.7658"/>
</g>
<!-- AR&#45;&gt;security -->
<g id="edge72" class="edge">
<title>AR&#45;&gt;security</title>
<path fill="none" stroke="#000000" d="M1789.3228,-442.9362C1803.4937,-439.4014 1821.1175,-435.2049 1837,-432 1933.0009,-412.6282 2045.8187,-395.2744 2111.2879,-385.7333"/>
<polygon fill="#000000" stroke="#000000" points="2111.9847,-389.169 2121.3789,-384.27 2110.9801,-382.2414 2111.9847,-389.169"/>
</g>
<!-- Censorship Resistance -->
<g id="node42" class="node">
<title>Censorship Resistance</title>
<polygon fill="none" stroke="#000000" points="1930.5,-684 1753.5,-684 1753.5,-648 1930.5,-648 1930.5,-684"/>
<text text-anchor="middle" x="1842" y="-662.3" font-family="Sans-Serif" font-size="14.00" fill="#000000">Censorship Resistance</text>
</g>
<!-- Censorship Resistance&#45;&gt;blockchain -->
<g id="edge76" class="edge">
<title>Censorship Resistance&#45;&gt;blockchain</title>
<path fill="none" stroke="#000000" d="M1930.56,-657.1751C1995.7995,-649.219 2086.1598,-635.1348 2163,-612 2349.3102,-555.9064 2533,-572.5713 2533,-378 2533,-378 2533,-378 2533,-234 2533,-160.8734 1392.9664,-105.9878 1096.6814,-92.9583"/>
<polygon fill="#000000" stroke="#000000" points="1096.6444,-89.4535 1086.5008,-92.5125 1096.3381,-96.4468 1096.6444,-89.4535"/>
</g>
<!-- Censorship Resistance&#45;&gt;content&#45;addressable storage -->
<g id="edge81" class="edge">
<title>Censorship Resistance&#45;&gt;content&#45;addressable storage</title>
<path fill="none" stroke="#000000" d="M1753.348,-649.323C1701.2573,-639.2119 1634.2161,-625.6596 1575,-612 1450.8433,-583.3603 1118.6767,-548.6103 1020,-468 1000.7305,-452.2585 989.2569,-426.0039 982.8837,-405.9025"/>
<polygon fill="#000000" stroke="#000000" points="986.1661,-404.6567 980.0016,-396.0399 979.4471,-406.6203 986.1661,-404.6567"/>
</g>
<!-- Censorship Resistance&#45;&gt;Remote collaboration -->
<g id="edge82" class="edge">
<title>Censorship Resistance&#45;&gt;Remote collaboration</title>
<path fill="none" stroke="#000000" d="M1813.3632,-647.9955C1797.6219,-637.8303 1777.9136,-624.659 1761,-612 1741.0456,-597.065 1740.5795,-586.5547 1718,-576 1682.802,-559.5468 1589.459,-544.2556 1515.9646,-534.176"/>
<polygon fill="#000000" stroke="#000000" points="1516.1137,-530.6643 1505.7341,-532.7888 1515.1731,-537.6008 1516.1137,-530.6643"/>
</g>
<!-- Censorship Resistance&#45;&gt;security -->
<g id="edge78" class="edge">
<title>Censorship Resistance&#45;&gt;security</title>
<path fill="none" stroke="#000000" d="M1930.8176,-655.4792C2006.6541,-641.7865 2113.1478,-610.584 2176,-540 2208.3612,-503.6578 2205.5282,-479.2769 2194,-432 2191.6851,-422.5065 2187.3855,-412.821 2182.8385,-404.3225"/>
<polygon fill="#000000" stroke="#000000" points="2185.8795,-402.5897 2177.8895,-395.632 2179.7966,-406.0537 2185.8795,-402.5897"/>
</g>
<!-- Censorship Resistance&#45;&gt;Web Publishing -->
<g id="edge77" class="edge">
<title>Censorship Resistance&#45;&gt;Web Publishing</title>
<path fill="none" stroke="#000000" d="M1792.7939,-647.9243C1766.1161,-638.1243 1732.9614,-625.945 1704.9148,-615.6422"/>
<polygon fill="#000000" stroke="#000000" points="1705.8199,-612.246 1695.2263,-612.0831 1703.4062,-618.8167 1705.8199,-612.246"/>
</g>
<!-- Censorship Resistance&#45;&gt;Tor -->
<g id="edge79" class="edge">
<title>Censorship Resistance&#45;&gt;Tor</title>
<path fill="none" stroke="#000000" d="M1930.7046,-656.1282C1985.8328,-648.1795 2057.4815,-634.5157 2118,-612 2148.225,-600.7549 2152.3447,-590.7944 2181,-576 2282.4199,-523.6382 2322.1782,-535.7976 2414,-468 2457.2923,-436.0347 2495,-431.8145 2495,-378 2495,-378 2495,-378 2495,-306 2495,-81.7193 2405.8449,-238.742 1268,-180 1183.3739,-175.6311 1084.1664,-168.6511 1031.427,-164.7924"/>
<polygon fill="#000000" stroke="#000000" points="1031.4381,-161.2838 1021.2084,-164.0412 1030.9248,-168.265 1031.4381,-161.2838"/>
</g>
<!-- Censorship Resistance&#45;&gt;Text Anonymization -->
<g id="edge80" class="edge">
<title>Censorship Resistance&#45;&gt;Text Anonymization</title>
<path fill="none" stroke="#000000" d="M1826.7979,-647.8714C1800.1194,-614.7352 1745.8238,-541.0538 1726,-468 1706.1768,-394.9486 1733.5026,-305.9083 1750.4014,-261.6848"/>
<polygon fill="#000000" stroke="#000000" points="1753.7308,-262.7821 1754.1334,-252.1949 1747.2164,-260.2202 1753.7308,-262.7821"/>
</g>
<!-- HTML merge&#45;&gt;Literate Programming -->
<g id="edge85" class="edge">
<title>HTML merge&#45;&gt;Literate Programming</title>
<path fill="none" stroke="#000000" d="M1456.9338,-1295.8314C1438.9439,-1286.2368 1416.7152,-1274.3815 1397.7014,-1264.2407"/>
<polygon fill="#000000" stroke="#000000" points="1399.1288,-1261.0354 1388.6582,-1259.4177 1395.8347,-1267.2119 1399.1288,-1261.0354"/>
</g>
<!-- Open Source metrics&#45;&gt;sentiment analysis -->
<g id="edge98" class="edge">
<title>Open Source metrics&#45;&gt;sentiment analysis</title>
<path fill="none" stroke="#000000" d="M1027.9154,-863.7623C1005.5857,-838.4436 965.082,-792.5182 939.6881,-763.7251"/>
<polygon fill="#000000" stroke="#000000" points="942.1935,-761.2745 932.954,-756.0896 936.9436,-765.9046 942.1935,-761.2745"/>
</g>
<!-- Open Source metrics&#45;&gt;bots -->
<g id="edge102" class="edge">
<title>Open Source metrics&#45;&gt;bots</title>
<path fill="none" stroke="#000000" d="M960.3452,-865.827C895.4962,-853.1498 811.1173,-836.3103 777,-828 768.5003,-825.9296 759.4218,-823.4787 750.8793,-821.0628"/>
<polygon fill="#000000" stroke="#000000" points="751.7421,-817.6691 741.1642,-818.2676 749.8066,-824.3962 751.7421,-817.6691"/>
</g>
<!-- Open Source metrics&#45;&gt;data visualization -->
<g id="edge101" class="edge">
<title>Open Source metrics&#45;&gt;data visualization</title>
<path fill="none" stroke="#000000" d="M981.9169,-863.966C928.6919,-845.3587 853.863,-811.1663 810,-756 718.9069,-641.4327 732.4848,-577.1923 751,-432 757.2726,-382.8114 769.8683,-372.7389 779,-324 787.7145,-277.4877 793.148,-222.6693 795.8706,-190.2082"/>
<polygon fill="#000000" stroke="#000000" points="799.3704,-190.3514 796.6908,-180.101 792.3933,-189.7851 799.3704,-190.3514"/>
</g>
<!-- Open Source metrics&#45;&gt;version control -->
<g id="edge99" class="edge">
<title>Open Source metrics&#45;&gt;version control</title>
<path fill="none" stroke="#000000" d="M1064.0502,-900.0327C1108.8165,-942.387 1213,-1053.4746 1213,-1170 1213,-1242 1213,-1242 1213,-1242 1213,-1291.084 1252.5415,-1335.6419 1281.645,-1361.79"/>
<polygon fill="#000000" stroke="#000000" points="1279.6967,-1364.7346 1289.5354,-1368.6654 1284.2954,-1359.4571 1279.6967,-1364.7346"/>
</g>
<!-- Open Source metrics&#45;&gt;incentives -->
<g id="edge100" class="edge">
<title>Open Source metrics&#45;&gt;incentives</title>
<path fill="none" stroke="#000000" d="M1003.4256,-900.1451C915.2325,-939.5855 706.3147,-1033.0146 610.5331,-1075.8486"/>
<polygon fill="#000000" stroke="#000000" points="609.0494,-1072.6779 601.3496,-1079.9555 611.9072,-1079.0681 609.0494,-1072.6779"/>
</g>
<!-- Open Source metrics&#45;&gt;Harassment -->
<g id="edge97" class="edge">
<title>Open Source metrics&#45;&gt;Harassment</title>
<path fill="none" stroke="#000000" d="M1041.6553,-863.7635C1031.5583,-783.8175 993.4752,-466.7474 1020,-432 1026.2037,-423.8732 1296.2914,-353.528 1420.1182,-321.6209"/>
<polygon fill="#000000" stroke="#000000" points="1421.0372,-324.9985 1429.8484,-319.1152 1419.2915,-318.2197 1421.0372,-324.9985"/>
</g>
<!-- Open Source metrics&#45;&gt;Bug futures markets -->
<g id="edge106" class="edge">
<title>Open Source metrics&#45;&gt;Bug futures markets</title>
<path fill="none" stroke="#000000" d="M1127.8297,-866.2853C1325.2823,-828.616 1834.4359,-727.6585 2252,-612 2421.452,-565.0645 2571,-553.8321 2571,-378 2571,-378 2571,-378 2571,-162 2571,-50.1522 804.179,-23.6627 377.7836,-18.8985"/>
<polygon fill="#000000" stroke="#000000" points="377.699,-15.3974 367.6609,-18.7866 377.6216,-22.397 377.699,-15.3974"/>
</g>
<!-- Bug futures markets&#45;&gt;bots -->
<g id="edge110" class="edge">
<title>Bug futures markets&#45;&gt;bots</title>
<path fill="none" stroke="#000000" d="M277.9412,-36.2332C266.7866,-63.1752 248,-115.4595 248,-162 248,-306 248,-306 248,-306 248,-363.0917 228.5823,-375.1819 223,-432 221.4356,-447.9233 218.8243,-452.5545 223,-468 232.6684,-503.7626 239.6297,-513.0039 265,-540 390.5526,-673.5981 596.7328,-764.1946 678.7507,-796.6864"/>
<polygon fill="#000000" stroke="#000000" points="677.5359,-799.9695 688.1236,-800.3598 680.0902,-793.4521 677.5359,-799.9695"/>
</g>
<!-- Large Data Set Collaboration&#45;&gt;DHT -->
<g id="edge112" class="edge">
<title>Large Data Set Collaboration&#45;&gt;DHT</title>
<path fill="none" stroke="#000000" d="M1156.7047,-431.7623C1178.8882,-406.0008 1219.4427,-358.9053 1244.1352,-330.2301"/>
<polygon fill="#000000" stroke="#000000" points="1247.0779,-332.1766 1250.9509,-322.3151 1241.7735,-327.6089 1247.0779,-332.1766"/>
</g>
<!-- Large Data Set Collaboration&#45;&gt;blockchain -->
<g id="edge113" class="edge">
<title>Large Data Set Collaboration&#45;&gt;blockchain</title>
<path fill="none" stroke="#000000" d="M1253.1384,-435.9069C1383.7926,-416.2793 1582,-375.1141 1582,-306 1582,-306 1582,-306 1582,-234 1582,-134.7835 1245.4841,-102.7696 1096.5255,-93.4588"/>
<polygon fill="#000000" stroke="#000000" points="1096.3257,-89.9402 1086.1318,-92.827 1095.901,-96.9274 1096.3257,-89.9402"/>
</g>
<!-- Large Data Set Collaboration&#45;&gt;content&#45;addressable storage -->
<g id="edge115" class="edge">
<title>Large Data Set Collaboration&#45;&gt;content&#45;addressable storage</title>
<path fill="none" stroke="#000000" d="M1099.3635,-431.8314C1076.8762,-422.0187 1048.9699,-409.8414 1025.3901,-399.552"/>
<polygon fill="#000000" stroke="#000000" points="1026.4808,-396.2093 1015.9156,-395.4177 1023.6812,-402.6251 1026.4808,-396.2093"/>
</g>
<!-- Large Data Set Collaboration&#45;&gt;data visualization -->
<g id="edge114" class="edge">
<title>Large Data Set Collaboration&#45;&gt;data visualization</title>
<path fill="none" stroke="#000000" d="M1143.2183,-431.865C1144.6415,-412.4837 1144.0899,-381.6316 1130,-360 1066.5097,-262.5262 936.7893,-206.2758 859.6346,-180.1121"/>
<polygon fill="#000000" stroke="#000000" points="860.6262,-176.7535 850.0327,-176.9193 858.4174,-183.3959 860.6262,-176.7535"/>
</g>
<!-- Large Data Set Collaboration&#45;&gt;version control -->
<g id="edge111" class="edge">
<title>Large Data Set Collaboration&#45;&gt;version control</title>
<path fill="none" stroke="#000000" d="M1142.4828,-468.0696C1149.0268,-549.4331 1175,-890.0008 1175,-1170 1175,-1242 1175,-1242 1175,-1242 1175,-1297.6596 1229.3893,-1340.3474 1269.6286,-1364.313"/>
<polygon fill="#000000" stroke="#000000" points="1268.0757,-1367.4579 1278.486,-1369.4268 1271.5758,-1361.3957 1268.0757,-1367.4579"/>
</g>
</g>
</svg>
